<svg xmlns="http://www.w3.org/2000/svg" xmlns:xlink="http://www.w3.org/1999/xlink" width="1919.329" height="159.301" viewBox="0 0 1919.329 159.301"><defs><clipPath id="a"><rect width="1919.329" height="159.301" transform="translate(0.671 159.043)" fill="none"/></clipPath><linearGradient id="b" x1="0.5" y1="1.295" x2="0.5" y2="0.469" gradientUnits="objectBoundingBox"><stop offset="0" stop-color="#230f92"/><stop offset="0.501" stop-color="#170a73"/><stop offset="1" stop-color="#0e075a"/></linearGradient><clipPath id="c"><path d="M1843.81,159.449c42.078,0,76.19,29.237,76.19,65.3v1034.4H0V224.752c0-36.066,34.112-65.3,76.19-65.3" fill="none"/></clipPath><linearGradient id="d" x1="1.337" y1="-7.664" x2="1.117" y2="-6.526" gradientUnits="objectBoundingBox"><stop offset="0" stop-color="#28129e"/><stop offset="1" stop-opacity="0"/></linearGradient><linearGradient id="e" x1="1.798" y1="-8.289" x2="1.578" y2="-7.152" xlink:href="#d"/><linearGradient id="f" x1="0.744" y1="-5.197" x2="0.468" y2="-4.331" xlink:href="#d"/><linearGradient id="g" x1="1.001" y1="-2.631" x2="0.73" y2="-2.076" xlink:href="#d"/><linearGradient id="h" x1="0.484" y1="1.577" x2="0.618" y2="-1.337" xlink:href="#d"/><linearGradient id="i" x1="0.248" y1="1.503" x2="0.557" y2="0.274" xlink:href="#d"/><linearGradient id="j" x1="0.274" y1="3.286" x2="0.501" y2="0.486" xlink:href="#d"/><linearGradient id="l" x1="1.567" y1="-0.953" x2="1.388" y2="-0.568" xlink:href="#d"/><linearGradient id="m" x1="1.026" y1="-15.742" x2="0.677" y2="-14.044" xlink:href="#d"/><linearGradient id="n" x1="0.471" y1="2.713" x2="0.517" y2="-0.852" xlink:href="#d"/><linearGradient id="o" x1="0.012" y1="0.563" x2="0.059" y2="-5.487" xlink:href="#d"/><linearGradient id="p" x1="0.807" y1="-25.111" x2="0.454" y2="-23.043" xlink:href="#d"/><linearGradient id="q" x1="0.859" y1="-41.528" x2="0.502" y2="-38.895" xlink:href="#d"/><linearGradient id="r" x1="1.021" y1="-5.353" x2="0.698" y2="-4.496" xlink:href="#d"/><linearGradient id="s" x1="4.614" y1="5.6" x2="4.291" y2="6.457" xlink:href="#d"/><linearGradient id="t" x1="3.25" y1="0.95" x2="2.996" y2="2.078" xlink:href="#d"/></defs><g transform="translate(-0.671 -159.043)"><g clip-path="url(#a)"><rect width="1920" height="1100" transform="translate(0 159.301)" fill="url(#b)"/><g clip-path="url(#c)"><rect width="1096.536" height="212.416" rx="106.208" transform="translate(-70.039 1316.913) rotate(-45)" fill="url(#d)" style="mix-blend-mode:screen;isolation:isolate"/><rect width="1096.536" height="212.416" rx="106.208" transform="translate(-483.225 773.063) rotate(-45)" fill="url(#e)" style="mix-blend-mode:screen;isolation:isolate"/><rect width="855.319" height="272.321" rx="136.161" transform="translate(75.763 1565.01) rotate(-45)" fill="url(#f)" style="mix-blend-mode:screen;isolation:isolate"/><rect width="855.319" height="418.026" rx="209.013" transform="translate(-318.865 1300.257) rotate(-45)" fill="url(#g)" style="mix-blend-mode:screen;isolation:isolate"/><rect width="1058.859" height="418.026" rx="209.013" transform="translate(2152.163 284.293) rotate(135)" fill="url(#h)" style="mix-blend-mode:screen;isolation:isolate"/><rect width="855.319" height="418.026" rx="209.013" transform="translate(1751.446 407.474) rotate(135)" fill="url(#i)" style="mix-blend-mode:screen;isolation:isolate"/><rect width="1563.94" height="418.026" rx="209.013" transform="translate(2059.043 284.556) rotate(135)" fill="url(#j)" style="mix-blend-mode:screen;isolation:isolate"/><rect width="855.319" height="418.026" rx="209.013" transform="translate(1133.166 -129.909) rotate(135)" fill="url(#i)" style="mix-blend-mode:screen;isolation:isolate"/><rect width="1299.773" height="603.242" rx="301.621" transform="translate(-521.492 1049.751) rotate(-45)" fill="url(#l)" style="mix-blend-mode:screen;isolation:isolate"/><rect width="689.482" height="141.807" rx="70.903" transform="translate(177.253 1316.956) rotate(-45)" fill="url(#m)" style="mix-blend-mode:screen;isolation:isolate"/><rect width="689.482" height="141.807" rx="70.903" transform="translate(1627.23 2.971) rotate(135)" fill="url(#n)" style="mix-blend-mode:screen;isolation:isolate"/><rect width="689.482" height="85.699" rx="42.85" transform="translate(2014.687 693.276) rotate(135)" fill="url(#o)" style="mix-blend-mode:screen;isolation:isolate"/><rect width="689.482" height="117.607" rx="58.804" transform="translate(-116.964 1429.589) rotate(-45)" fill="url(#p)" style="mix-blend-mode:screen;isolation:isolate"/><rect width="689.482" height="93.507" rx="46.753" transform="translate(-311.665 1387.26) rotate(-45)" fill="url(#q)" style="mix-blend-mode:screen;isolation:isolate"/><rect width="724.49" height="273.061" rx="136.53" transform="translate(-291.848 1002.554) rotate(-45)" fill="url(#r)" style="mix-blend-mode:screen;isolation:isolate"/><rect width="724.49" height="273.061" rx="136.53" transform="translate(1338.508 -58.578) rotate(135)" fill="url(#s)" style="mix-blend-mode:screen;isolation:isolate"/><rect width="942.45" height="212.46" rx="106.23" transform="translate(1895.243 609.371) rotate(135)" fill="url(#t)" style="mix-blend-mode:screen;isolation:isolate"/></g></g></g></svg>