<svg xmlns="http://www.w3.org/2000/svg" width="44.425" height="44.425" viewBox="0 0 44.425 44.425"><g transform="translate(-146.719 -1079.854)"><circle cx="22.212" cy="22.212" r="22.212" transform="translate(146.719 1079.854)" fill="#002f87"/><path d="M25.95,1.5H0A1.5,1.5,0,0,1-1.5,0,1.5,1.5,0,0,1,0-1.5H25.95A1.5,1.5,0,0,1,27.45,0,1.5,1.5,0,0,1,25.95,1.5Z" transform="translate(155.956 1102.066)" fill="#fff"/><path d="M0,27.45a1.5,1.5,0,0,1-1.5-1.5V0A1.5,1.5,0,0,1,0-1.5,1.5,1.5,0,0,1,1.5,0V25.95A1.5,1.5,0,0,1,0,27.45Z" transform="translate(168.931 1089.091)" fill="#fff"/></g></svg>